<svg xmlns="http://www.w3.org/2000/svg" version="1.0" width="434.000000pt" height="414.000000pt" viewBox="0 0 434.000000 414.000000" preserveAspectRatio="xMidYMid meet">

<g transform="translate(0.000000,414.000000) scale(0.100000,-0.100000)" fill="#ffffff" stroke="none">
<path d="M910 3978 c0 -38 -45 -122 -80 -151 -37 -32 -84 -53 -138 -63 l-37 -7 63 -17 c101 -28 162 -89 188 -189 7 -25 14 -39 17 -31 49 150 88 190 217 226 25 7 36 13 24 13 -40 2 -110 32 -148 63 -40 33 -86 116 -86 156 0 12 -4 22 -10 22 -5 0 -10 -10 -10 -22z" fill="#ffffff"/>
<path d="M1855 3735 c-324 -52 -616 -204 -855 -444 -240 -241 -385 -517 -441 -841 -27 -157 -27 -383 0 -540 50 -290 192 -580 384 -786 66 -71 69 -75 53 -93 -16 -18 -16 -23 -2 -65 23 -68 21 -82 -33 -218 -27 -68 -63 -168 -81 -223 -28 -88 -38 -105 -80 -145 -51 -48 -74 -102 -68 -155 2 -24 12 -34 48 -52 144 -70 654 -113 1341 -113 700 0 1230 49 1346 125 48 32 20 141 -52 199 -37 31 -46 46 -70 123 -15 48 -51 150 -81 226 -59 151 -62 175 -37 239 16 40 16 42 -4 57 -20 15 -19 17 44 86 191 210 321 462 385 752 30 133 33 472 5 603 -48 228 -140 444 -264 620 -140 198 -365 391 -586 501 -90 46 -274 109 -387 134 -106 24 -444 29 -565 10z m505 -141 c437 -75 829 -368 1029 -769 52 -103 101 -229 101 -257 0 -4 -15 -8 -33 -8 -32 0 -32 1 -29 40 5 44 -13 60 -45 40 -16 -10 -15 -10 5 -5 18 5 22 2 22 -15 0 -27 -56 -163 -78 -191 -16 -19 -19 -19 -55 -4 -20 8 -37 17 -37 18 0 2 20 42 44 89 47 90 63 155 51 207 -8 39 -25 39 -90 3 l-50 -27 -1 60 c0 67 -24 125 -52 125 -9 0 -36 -11 -59 -25 l-43 -24 0 37 c-1 52 -16 112 -33 129 -13 13 -21 11 -63 -10 -27 -14 -60 -35 -74 -46 -20 -17 -11 -15 39 9 43 21 67 28 74 21 6 -6 8 -59 5 -139 -4 -124 -6 -133 -41 -208 l-37 -79 35 39 c37 41 74 126 82 189 6 42 40 73 93 84 l32 6 -4 -134 c-3 -112 -7 -142 -26 -183 -12 -27 -20 -51 -18 -53 7 -7 50 70 72 131 22 63 47 87 108 102 l29 7 -7 -49 c-9 -63 -32 -146 -58 -207 -19 -44 -23 -48 -47 -42 -37 9 -37 10 2 44 41 36 62 81 53 115 -8 32 -35 41 -55 19 -15 -16 -15 -16 2 -3 13 9 21 10 29 2 19 -19 -1 -78 -40 -121 l-37 -40 -127 36 c-77 23 -124 41 -121 47 3 6 0 6 -6 0 -10 -9 -25 -8 -63 2 -27 7 -106 21 -174 31 -68 9 -124 20 -124 24 0 3 18 18 39 32 76 50 146 190 122 243 -6 13 -18 27 -27 31 -38 14 -103 -52 -76 -79 8 -8 10 -6 6 8 -6 24 27 57 53 52 52 -10 -4 -163 -90 -247 l-46 -44 -133 12 c-281 24 -586 7 -903 -51 -106 -19 -110 -19 -123 -1 -33 42 -72 143 -83 212 -11 74 -9 204 3 216 7 8 85 -25 131 -55 l32 -22 -32 29 c-43 38 -130 83 -148 77 -36 -14 -47 -159 -20 -259 19 -71 46 -126 86 -174 16 -20 29 -39 29 -43 0 -3 -25 -12 -55 -19 -66 -15 -77 -8 -111 66 -23 48 -31 105 -18 118 4 3 16 1 28 -5 20 -10 20 -10 3 8 -25 26 -51 8 -55 -39 -4 -41 23 -100 63 -137 24 -22 24 -25 8 -31 -36 -15 -49 -8 -70 35 -32 65 -47 156 -40 247 3 44 8 83 11 86 3 4 25 -1 48 -10 l43 -17 -25 20 c-30 24 -65 35 -80 25 -21 -13 -40 -73 -40 -129 0 -68 31 -168 70 -226 l30 -45 -27 -11 c-35 -15 -61 1 -92 56 -27 49 -26 96 4 92 19 -2 19 -2 2 9 -25 15 -47 -5 -47 -45 0 -34 21 -70 58 -100 23 -18 24 -20 6 -33 -10 -7 -22 -13 -26 -13 -22 0 -88 202 -88 267 0 39 7 40 63 12 42 -20 42 -20 17 0 -34 28 -77 44 -95 37 -22 -8 -19 -103 5 -169 11 -29 34 -75 50 -101 17 -27 30 -49 28 -50 -2 -2 -30 -13 -63 -26 -75 -29 -197 -91 -191 -97 3 -3 60 13 128 35 522 172 943 236 1393 212 354 -19 627 -74 1069 -215 77 -25 141 -44 142 -42 2 2 -37 23 -86 47 -50 24 -90 47 -90 51 0 4 7 13 16 20 9 7 30 37 46 66 28 50 32 53 69 53 23 0 39 -5 39 -12 0 -6 -16 -40 -35 -75 -19 -35 -33 -63 -30 -63 2 0 18 20 36 45 17 24 35 42 39 40 4 -3 13 -49 20 -103 16 -122 8 -399 -15 -497 -62 -278 -198 -526 -392 -721 -115 -115 -194 -171 -251 -179 -161 -22 -258 -27 -617 -32 -564 -8 -930 19 -1005 75 -287 213 -484 530 -556 897 -24 122 -25 375 -1 502 118 639 622 1108 1272 1184 95 11 280 3 395 -17z m-598 -2874 c261 -10 752 -3 1013 15 61 4 64 3 23 -4 -255 -48 -1175 -48 -1393 0 -36 8 -35 8 15 4 30 -3 184 -10 342 -15z m163 -216 c164 -4 381 -2 524 5 134 6 246 10 248 8 8 -9 -270 -28 -482 -34 -224 -6 -563 8 -665 28 -38 7 -33 7 25 3 39 -2 196 -7 350 -10z m-692 -211 c-7 -2 -21 -2 -30 0 -10 3 -4 5 12 5 17 0 24 -2 18 -5z m1751 -3 c-79 -16 -360 -40 -589 -51 -348 -17 -813 -1 -1063 36 -86 13 -86 13 68 7 227 -10 1327 -5 1455 6 144 12 184 13 129 2z" fill="#ffffff"/>
<path d="M2071 3368 c-87 -116 -138 -278 -126 -400 8 -83 37 -198 65 -259 20 -44 20 -44 15 -9 -3 19 -8 53 -10 75 l-5 40 14 -36 c14 -36 65 -119 73 -119 2 0 -6 18 -17 40 -35 70 -45 231 -16 278 12 19 36 14 46 -10 9 -23 9 -23 9 -2 1 30 -26 51 -47 38 -29 -19 -52 -58 -61 -104 -8 -42 -9 -40 -10 35 -1 149 29 299 83 410 19 38 33 71 31 73 -2 2 -21 -21 -44 -50z" fill="#ffffff"/>
<path d="M2185 3339 c44 -93 73 -228 80 -369 l5 -105 -19 54 c-24 68 -54 100 -79 85 -9 -6 -18 -24 -19 -40 -2 -27 -1 -27 5 -5 10 33 27 37 46 9 26 -37 21 -169 -8 -241 -15 -35 -19 -53 -11 -47 20 16 65 110 65 134 0 10 3 17 6 14 3 -4 -1 -43 -10 -89 -9 -46 -14 -84 -12 -86 2 -2 20 47 41 108 28 85 38 135 42 207 l6 95 60 64 c62 66 114 109 123 100 3 -2 10 -48 15 -102 16 -154 -14 -308 -82 -419 -16 -27 -28 -50 -26 -53 7 -6 73 79 105 137 31 55 72 185 72 227 0 26 32 50 119 86 l63 27 -5 -142 c-5 -151 -27 -259 -69 -342 -15 -29 -17 -37 -5 -28 23 20 84 149 103 222 10 36 25 74 33 84 9 11 11 16 4 13 -8 -5 -12 13 -12 67 0 79 -20 146 -44 146 -17 0 -113 -46 -149 -71 -14 -11 -28 -19 -31 -19 -2 0 -7 29 -9 64 -7 85 -34 140 -70 144 -35 4 -106 -59 -159 -141 -38 -58 -38 -59 -44 -30 -25 111 -86 238 -141 293 -23 23 -22 19 11 -51z" fill="#ffffff"/>
<path d="M1715 3250 c-18 -20 -45 -115 -45 -162 l0 -27 -82 44 c-46 25 -91 45 -100 45 -46 0 -57 -184 -19 -310 26 -82 71 -181 102 -220 16 -21 15 -16 -5 30 -35 77 -55 160 -66 270 -14 138 -13 190 4 196 8 3 48 -10 89 -29 72 -33 76 -37 82 -74 20 -128 89 -276 161 -343 l37 -35 -36 55 c-20 30 -48 91 -64 135 -25 73 -27 92 -27 225 0 80 5 156 10 169 10 24 13 22 98 -62 76 -75 84 -81 64 -45 -13 23 -49 67 -80 100 -63 63 -92 72 -123 38z" fill="#ffffff"/>
<path d="M1810 2992 c-59 -60 -33 -164 68 -273 57 -62 96 -84 45 -25 -77 87 -125 212 -103 266 21 50 80 36 80 -19 1 -22 2 -24 11 -9 10 19 -13 78 -30 78 -5 0 -16 3 -25 6 -10 4 -27 -6 -46 -24z" fill="#ffffff"/>
<path d="M2393 3009 c-24 -9 -43 -38 -43 -66 1 -11 6 -6 15 15 15 34 49 44 73 20 38 -38 -5 -173 -88 -277 l-43 -54 36 27 c42 32 97 98 121 143 51 100 6 221 -71 192z" fill="#ffffff"/>
<path d="M1576 2904 c-46 -46 22 -199 117 -266 32 -22 32 -22 -5 20 -38 43 -90 137 -102 184 -13 55 24 78 64 38 11 -11 20 -15 20 -10 0 17 -39 50 -59 50 -11 0 -27 -7 -35 -16z" fill="#ffffff"/>
<path d="M1331 2811 c-41 -41 -13 -129 64 -200 55 -50 79 -55 30 -6 -68 69 -109 187 -69 202 9 3 25 1 35 -5 15 -10 17 -9 13 3 -4 8 -10 15 -14 15 -5 0 -15 3 -23 6 -9 3 -25 -4 -36 -15z" fill="#ffffff"/>
<path d="M2870 2810 c-11 -11 -20 -28 -20 -37 0 -13 4 -11 13 7 18 36 54 39 63 5 11 -43 -45 -149 -102 -194 -41 -32 -12 -25 34 9 53 38 92 105 92 158 0 65 -40 92 -80 52z" fill="#ffffff"/>
<path d="M3063 2723 c-7 -2 -13 -9 -13 -15 0 -6 6 -5 15 2 47 39 39 -79 -11 -156 l-26 -39 30 31 c41 43 68 118 56 152 -9 27 -27 35 -51 25z" fill="#ffffff"/>
<path d="M835 2630 c-9 -30 11 -92 52 -154 40 -60 65 -78 33 -23 -28 48 -71 167 -64 178 3 6 13 8 21 5 8 -3 11 -1 8 4 -11 17 -43 11 -50 -10z" fill="#ffffff"/>
<path d="M900 2540 c0 -22 11 -42 41 -73 l40 -42 -35 48 c-37 50 -45 82 -23 90 7 3 5 6 -5 6 -14 1 -18 -7 -18 -29z" fill="#ffffff"/>
<path d="M3350 2563 c17 -8 12 -26 -26 -83 l-35 -55 41 44 c41 45 52 91 22 97 -7 1 -8 0 -2 -3z" fill="#ffffff"/>
<path d="M750 2536 c0 -29 63 -122 80 -118 7 1 19 -3 28 -10 9 -7 4 2 -11 20 -31 38 -35 68 -9 75 13 4 12 5 -4 6 -29 1 -36 -20 -18 -54 8 -15 13 -30 11 -32 -4 -3 -67 110 -67 120 0 3 17 8 38 10 l37 4 -42 1 c-39 2 -43 0 -43 -22z" fill="#ffffff"/>
<path d="M3446 2495 c4 -9 -5 -34 -20 -58 l-27 -42 30 33 c31 32 40 65 21 77 -6 3 -7 -1 -4 -10z" fill="#ffffff"/>
<path d="M3541 3537 c-2 -45 -41 -95 -92 -120 -51 -24 -51 -24 -22 -30 44 -9 90 -52 105 -99 l14 -41 12 40 c14 47 47 80 98 98 l37 12 -35 12 c-44 15 -83 55 -102 106 -8 22 -15 32 -15 22z" fill="#ffffff"/>
<path d="M4021 2764 c-1 -45 -48 -131 -88 -162 -20 -14 -66 -36 -102 -49 -36 -12 -57 -22 -45 -22 39 -2 110 -32 147 -62 43 -35 75 -92 86 -152 l8 -42 7 30 c25 103 81 174 162 205 30 11 65 20 77 21 12 0 3 6 -23 13 -108 30 -165 78 -196 166 -30 84 -33 89 -33 54z" fill="#ffffff"/>
<path d="M245 2681 c-8 -36 -52 -79 -99 -95 l-37 -13 39 -11 c46 -14 79 -47 97 -99 l13 -38 11 28 c6 16 11 32 11 36 0 16 58 61 95 75 22 8 32 15 22 15 -53 2 -127 69 -127 115 0 27 -18 18 -25 -13z" fill="#ffffff"/>
<path d="M286 1543 c-21 -63 -70 -111 -136 -133 l-51 -17 45 -12 c74 -18 114 -62 152 -166 6 -18 8 -16 14 10 18 80 69 132 155 158 34 11 42 16 25 17 -36 1 -101 33 -129 63 -13 15 -32 49 -41 78 l-18 51 -16 -49z" fill="#ffffff"/>
<path d="M3877 1331 c-9 -41 -55 -89 -100 -105 l-38 -13 45 -17 c48 -18 80 -53 91 -99 8 -30 25 -37 25 -9 0 37 40 83 92 106 l51 23 -30 6 c-42 8 -88 50 -107 97 -9 22 -18 40 -20 40 -2 0 -6 -13 -9 -29z" fill="#ffffff"/>
</g>
</svg>